<svg width="105" height="56" viewBox="0 0 105 56" fill="none" xmlns="http://www.w3.org/2000/svg">
<path d="M84.5375 21.8957C84.615 20.1131 84.8088 18.0721 85.1188 15.7727C85.3255 14.4034 85.4805 13.0729 85.5838 11.7811C85.6097 11.4969 85.6226 11.0577 85.6226 10.4635C85.6226 9.61092 85.5709 8.48707 85.4676 7.09195C85.3642 5.85184 85.3126 4.98635 85.3126 4.49547C85.3126 3.07451 85.5968 2.00234 86.1651 1.27894C86.7594 0.555545 87.8703 0.193848 89.4979 0.193848C90.7639 0.193848 91.7198 0.413449 92.3657 0.852653C93.0116 1.26602 93.4379 1.86024 93.6445 2.63531C93.8771 3.38454 93.9933 4.3663 93.9933 5.58057C93.9933 6.35563 93.9804 6.94985 93.9546 7.36322L93.9158 9.57217C93.9158 10.0114 93.9417 10.7477 93.9933 11.7811L94.1096 13.9901C94.1354 15.0751 94.1871 15.9148 94.2646 16.509C94.3421 17.0774 94.4842 17.4133 94.6909 17.5166C94.7942 17.5683 95.0138 17.3616 95.3497 16.8966C95.6856 16.4315 96.0731 16.0311 96.5123 15.6952C96.9773 15.3593 97.5586 15.1914 98.2562 15.1914C99.4705 15.1914 100.388 15.734 101.008 16.819C101.628 17.8783 101.938 19.183 101.938 20.7331C101.938 21.7149 101.809 22.645 101.55 23.5234C101.318 24.4018 100.982 25.0994 100.543 25.6161C99.8968 26.3911 99.1088 26.8949 98.1787 27.1275C97.2486 27.36 95.9181 27.4762 94.1871 27.4762L89.5754 27.4375H89.3429C87.5344 27.4375 86.2556 26.9079 85.5063 25.8486C84.7829 24.7893 84.46 23.4717 84.5375 21.8957ZM86.6302 5.69683C86.656 5.87768 86.7077 6.03269 86.7852 6.16187C86.8885 6.26521 87.0048 6.31688 87.134 6.31688C87.2631 6.31688 87.3665 6.23938 87.444 6.08436C87.5215 5.90351 87.5344 5.67099 87.4827 5.3868C87.2761 4.27587 87.1727 3.47497 87.1727 2.98409C87.1727 2.49321 87.2761 2.14443 87.4827 1.93775C87.7153 1.73106 88.0899 1.62772 88.6066 1.62772C88.7358 1.62772 89.0846 1.65356 89.6529 1.70523C89.7563 1.73106 89.8984 1.74398 90.0792 1.74398C90.3118 1.74398 90.4926 1.71815 90.6218 1.66647C90.7768 1.58897 90.8543 1.51146 90.8543 1.43395C90.8543 1.33061 90.738 1.24019 90.5055 1.16268C90.273 1.05934 89.963 1.00767 89.5754 1.00767C88.4645 1.00767 87.6765 1.21435 87.2115 1.62772C86.7464 2.04109 86.5139 2.82908 86.5139 3.99168C86.5139 4.45672 86.5527 5.0251 86.6302 5.69683ZM97.7136 16.2377C97.2486 16.3411 96.8611 16.5349 96.551 16.819C96.241 17.1032 95.9697 17.3874 95.7372 17.6716C95.5305 17.9558 95.3884 18.1496 95.3109 18.2529C95.1818 18.4338 95.1172 18.5888 95.1172 18.718C95.1172 18.8471 95.1688 18.9117 95.2722 18.9117C95.4014 18.9117 95.5305 18.8084 95.6597 18.6017C96.0214 18.085 96.3314 17.7233 96.5898 17.5166C96.874 17.2841 97.3003 17.1032 97.8687 16.9741C97.9978 16.9482 98.1012 16.8966 98.1787 16.819C98.2562 16.7415 98.2949 16.6511 98.2949 16.5478C98.2949 16.4444 98.2433 16.3669 98.1399 16.3153C98.0366 16.2377 97.8945 16.2119 97.7136 16.2377Z" fill="#26434C"/>
<path d="M65.9556 21.8957C66.0331 20.1131 66.2269 18.0721 66.5369 15.7727C66.7436 14.4034 66.8986 13.0729 67.0019 11.7811C67.0278 11.4969 67.0407 11.0577 67.0407 10.4635C67.0407 9.61092 66.989 8.48707 66.8857 7.09195C66.7823 5.85184 66.7307 4.98635 66.7307 4.49547C66.7307 3.07451 67.0148 2.00234 67.5832 1.27894C68.1774 0.555545 69.2884 0.193848 70.916 0.193848C72.182 0.193848 73.1379 0.413449 73.7838 0.852653C74.4297 1.26602 74.8559 1.86024 75.0626 2.63531C75.2952 3.38454 75.4114 4.3663 75.4114 5.58057C75.4114 6.35563 75.3985 6.94985 75.3727 7.36322L75.3339 9.57217C75.3339 10.0114 75.3597 10.7477 75.4114 11.7811L75.5277 13.9901C75.5535 15.0751 75.6052 15.9148 75.6827 16.509C75.7602 17.0774 75.9023 17.4133 76.109 17.5166C76.2123 17.5683 76.4319 17.3616 76.7678 16.8966C77.1036 16.4315 77.4912 16.0311 77.9304 15.6952C78.3954 15.3593 78.9767 15.1914 79.6743 15.1914C80.8886 15.1914 81.8057 15.734 82.4258 16.819C83.0458 17.8783 83.3559 19.183 83.3559 20.7331C83.3559 21.7149 83.2267 22.645 82.9683 23.5234C82.7358 24.4018 82.3999 25.0994 81.9607 25.6161C81.3148 26.3911 80.5269 26.8949 79.5968 27.1275C78.6667 27.36 77.3362 27.4762 75.6052 27.4762L70.9935 27.4375H70.761C68.9525 27.4375 67.6737 26.9079 66.9244 25.8486C66.201 24.7893 65.8781 23.4717 65.9556 21.8957ZM68.0483 5.69683C68.0741 5.87768 68.1258 6.03269 68.2033 6.16187C68.3066 6.26521 68.4229 6.31688 68.5521 6.31688C68.6812 6.31688 68.7846 6.23938 68.8621 6.08436C68.9396 5.90351 68.9525 5.67099 68.9008 5.3868C68.6942 4.27587 68.5908 3.47497 68.5908 2.98409C68.5908 2.49321 68.6942 2.14443 68.9008 1.93775C69.1334 1.73106 69.508 1.62772 70.0247 1.62772C70.1539 1.62772 70.5026 1.65356 71.071 1.70523C71.1744 1.73106 71.3165 1.74398 71.4973 1.74398C71.7298 1.74398 71.9107 1.71815 72.0399 1.66647C72.1949 1.58897 72.2724 1.51146 72.2724 1.43395C72.2724 1.33061 72.1561 1.24019 71.9236 1.16268C71.6911 1.05934 71.3811 1.00767 70.9935 1.00767C69.8826 1.00767 69.0946 1.21435 68.6296 1.62772C68.1645 2.04109 67.932 2.82908 67.932 3.99168C67.932 4.45672 67.9708 5.0251 68.0483 5.69683ZM79.1317 16.2377C78.6667 16.3411 78.2792 16.5349 77.9691 16.819C77.6591 17.1032 77.3878 17.3874 77.1553 17.6716C76.9486 17.9558 76.8065 18.1496 76.729 18.2529C76.5999 18.4338 76.5353 18.5888 76.5353 18.718C76.5353 18.8471 76.5869 18.9117 76.6903 18.9117C76.8195 18.9117 76.9486 18.8084 77.0778 18.6017C77.4395 18.085 77.7495 17.7233 78.0079 17.5166C78.2921 17.2841 78.7184 17.1032 79.2868 16.9741C79.4159 16.9482 79.5193 16.8966 79.5968 16.819C79.6743 16.7415 79.713 16.6511 79.713 16.5478C79.713 16.4444 79.6614 16.3669 79.558 16.3153C79.4547 16.2377 79.3126 16.2119 79.1317 16.2377Z" fill="#26434C"/>
<path d="M47.9791 21.8957C48.0308 20.0097 48.2116 17.8008 48.5217 15.2689C48.6508 14.2613 48.78 13.0987 48.9092 11.7811C48.935 11.5486 48.948 11.1998 48.948 10.7348C48.948 10.0114 48.8704 8.92628 48.7154 7.47948C48.6896 7.19529 48.6508 6.74317 48.5992 6.12312C48.5475 5.47722 48.5217 4.93468 48.5217 4.49547C48.5217 3.10035 48.78 2.04109 49.2967 1.31769C49.8393 0.568462 50.834 0.193848 52.2807 0.193848H58.365C59.9668 0.219683 61.0907 0.400531 61.7366 0.736394C62.4083 1.04642 62.7442 1.73106 62.7442 2.79032C62.7442 3.59123 62.6925 4.2242 62.5891 4.68924C62.4858 5.15428 62.2533 5.5289 61.8916 5.81309C61.5557 6.09728 61.0261 6.23937 60.3027 6.23937L56.5824 6.27813C56.4015 6.27813 56.2336 6.36855 56.0786 6.5494C55.9494 6.70441 55.8848 6.88526 55.8848 7.09195C55.8848 7.47948 56.1302 7.67325 56.6211 7.67325L59.2951 7.6345C60.1735 7.6345 60.7936 7.69909 61.1553 7.82826C61.517 7.95744 61.7624 8.22871 61.8916 8.64209C62.0208 9.02962 62.1112 9.71426 62.1629 10.696C62.1887 11.5486 62.0854 12.2074 61.8528 12.6724C61.6461 13.1375 61.3361 13.4863 60.9228 13.7188C60.5094 13.9513 59.8635 14.2226 58.9851 14.5326C58.0033 14.8685 57.2412 15.1656 56.6986 15.4239C56.2853 15.6306 56.0786 15.9277 56.0786 16.3153C56.0786 16.4961 56.1432 16.664 56.2723 16.819C56.4274 16.9482 56.647 17.0128 56.9312 17.0128C57.2153 17.0128 57.5125 16.9482 57.8225 16.819C58.1325 16.664 58.5071 16.4315 58.9463 16.1215C58.998 16.0698 59.2305 15.9277 59.6439 15.6952C60.0573 15.4368 60.4577 15.2689 60.8452 15.1914C60.9486 15.1656 61.1036 15.1527 61.3103 15.1527C62.3954 15.1527 63.235 15.721 63.8293 16.8578C64.4493 17.9687 64.7593 19.2863 64.7593 20.8106C64.7593 21.7666 64.6302 22.6837 64.3718 23.5621C64.1134 24.4147 63.7388 25.0994 63.248 25.6161C62.5246 26.3911 61.7107 26.8949 60.8065 27.1275C59.9281 27.36 58.6492 27.4762 56.9699 27.4762L53.0946 27.4375H52.862C51.0536 27.4375 49.7747 26.9079 49.0255 25.8486C48.2762 24.7893 47.9275 23.4717 47.9791 21.8957ZM49.4905 5.50306C49.4905 5.68391 49.5293 5.83892 49.6068 5.9681C49.7101 6.07144 49.8134 6.12312 49.9168 6.12312C50.0718 6.12312 50.1881 6.04561 50.2656 5.89059C50.3689 5.70974 50.3947 5.47723 50.3431 5.19303C50.1881 4.34046 50.1106 3.66873 50.1106 3.17786C50.1106 2.63531 50.2139 2.26069 50.4206 2.05401C50.6531 1.84732 51.0406 1.74398 51.5832 1.74398C51.9707 1.74398 52.6424 1.80857 53.5984 1.93775L53.9471 1.9765C54.2313 1.9765 54.438 1.93775 54.5672 1.86024C54.7222 1.78273 54.7997 1.67939 54.7997 1.55021C54.7997 1.42104 54.7093 1.30478 54.5284 1.20143C54.3476 1.09809 54.0892 1.04642 53.7534 1.04642C52.3324 1.04642 51.3248 1.16268 50.7306 1.3952C50.1622 1.62772 49.8134 2.01525 49.6843 2.5578C49.5551 3.10035 49.4905 4.0821 49.4905 5.50306ZM63.9455 20.1518C63.9455 19.2476 63.7388 18.3821 63.3255 17.5554C62.9121 16.7286 62.3308 16.3153 61.5816 16.3153C61.194 16.3153 60.8065 16.4186 60.419 16.6253C60.1089 16.7803 59.9539 16.9611 59.9539 17.1678C59.9539 17.297 60.0443 17.3616 60.2252 17.3616C60.4319 17.3616 60.6515 17.297 60.884 17.1678C61.1682 16.987 61.4653 16.8966 61.7753 16.8966C62.3695 16.8966 62.8088 17.2841 63.0929 18.0592C63.3771 18.8084 63.4805 19.5835 63.403 20.3844V20.5394C63.403 20.6944 63.4288 20.8365 63.4805 20.9657C63.5321 21.069 63.5838 21.1207 63.6355 21.1207C63.713 21.1207 63.7776 21.0432 63.8293 20.8882C63.9068 20.7073 63.9455 20.4619 63.9455 20.1518Z" fill="#26434C"/>
<path d="M23.1149 5.73558C23.0374 4.13377 23.3733 2.81616 24.1225 1.78273C24.8717 0.723476 26.2152 0.193848 28.1528 0.193848C30.0905 0.193848 31.4598 0.762229 32.2607 1.89899C33.0616 3.03576 33.4362 4.4438 33.3846 6.12312C33.3587 7.38906 33.2812 8.59041 33.152 9.72718C33.0229 10.8639 32.842 12.2074 32.6095 13.7575C32.4028 15.2818 32.3382 16.044 32.4157 16.044C32.6224 16.0698 32.9583 15.3593 33.4233 13.9125C33.8367 12.7499 34.1725 11.9232 34.4309 11.4323C34.7151 10.9156 35.0251 10.6573 35.361 10.6573C35.8519 10.6573 36.2652 10.9544 36.6011 11.5486C36.9628 12.117 37.3891 13.0341 37.8799 14.3001C37.9316 14.4293 38.0608 14.8297 38.2675 15.5014C38.4742 16.1473 38.6421 16.4574 38.7713 16.4315C38.8488 16.4315 38.7454 15.7598 38.4612 14.4163C38.0995 12.5045 37.8154 10.9544 37.6087 9.76593C37.4278 8.5775 37.3116 7.29863 37.2599 5.92935C37.1824 4.37921 37.5958 3.03576 38.5 1.89899C39.4042 0.762229 40.8123 0.193848 42.7241 0.193848C44.3518 0.193848 45.5144 0.775148 46.2119 1.93775C46.9095 3.07452 47.2324 4.46964 47.1808 6.12312C47.1549 7.36322 47.0774 8.46124 46.9482 9.41715C46.8191 10.3472 46.6382 11.4452 46.4057 12.7112C46.0698 14.8297 45.9019 15.876 45.9019 15.8502C45.7986 16.4961 45.7469 17.1937 45.7469 17.9429C45.7469 18.7696 45.8244 19.8289 45.9794 21.1207C46.1344 22.3866 46.199 23.2521 46.1732 23.7172C46.1473 24.9831 45.7727 25.9003 45.0493 26.4686C44.3259 27.0112 43.3313 27.3341 42.0653 27.4375L41.4065 27.4762C40.4506 27.4762 39.6497 27.2825 39.0038 26.8949C38.3837 26.4816 37.8412 25.8615 37.3761 25.0348C37.0145 24.363 36.614 23.3813 36.1748 22.0895C35.9681 21.3403 35.7873 20.9657 35.6322 20.9657C35.5289 20.9657 35.4385 21.1078 35.361 21.3919C35.2835 21.6503 35.206 21.9732 35.1285 22.3608C34.8443 23.9368 34.4567 25.151 33.9659 26.0036C33.7075 26.417 33.2037 26.8045 32.4545 27.1662C31.7052 27.5279 30.8656 27.6958 29.9355 27.67C28.0237 27.6183 26.6544 27.2179 25.8276 26.4686C25.0267 25.7194 24.6263 24.5568 24.6263 22.9808C24.6263 22.3608 24.6521 21.8699 24.7038 21.5082C24.7296 21.379 24.7813 21.0044 24.8588 20.3844C24.9363 19.7385 24.9751 19.0151 24.9751 18.2142C24.9751 17.5166 24.9363 16.7286 24.8588 15.8502C24.7296 14.5843 24.4713 13.2021 24.0837 11.7036C23.7995 10.4893 23.5799 9.46882 23.4249 8.64209C23.2958 7.78951 23.1924 6.82068 23.1149 5.73558ZM24.3938 5.73558C24.4196 5.91643 24.4713 6.07144 24.5488 6.20062C24.6521 6.30396 24.7555 6.35564 24.8588 6.35564C25.0397 6.35564 25.1301 6.1877 25.1301 5.85184C25.1301 5.67099 25.1172 5.5289 25.0913 5.42555C24.9363 4.65049 24.8588 4.03043 24.8588 3.56539C24.8588 2.86783 25.0526 2.38987 25.4401 2.13151C25.8276 1.84732 26.5123 1.66648 27.494 1.58897C27.7782 1.56313 27.9978 1.51146 28.1528 1.43395C28.3337 1.33061 28.4241 1.24019 28.4241 1.16268C28.4241 1.05934 28.3466 0.994749 28.1916 0.968913C28.0624 0.917241 27.8687 0.904324 27.6103 0.930161C26.4219 1.08517 25.5693 1.42104 25.0526 1.93775C24.5617 2.45446 24.3163 3.25536 24.3163 4.34046C24.3163 4.93468 24.3421 5.39972 24.3938 5.73558ZM39.2751 13.37C39.3526 13.6025 39.4688 13.7188 39.6238 13.7188C39.8047 13.7188 39.8951 13.6025 39.8951 13.37C39.8951 13.215 39.8435 13.0471 39.7401 12.8662C39.5076 12.3237 39.3267 11.639 39.1976 10.8123C39.0684 9.9597 39.0425 9.05545 39.1201 8.09954C39.1459 8.04787 39.1588 7.97036 39.1588 7.86702C39.1588 7.712 39.1201 7.59574 39.0425 7.51824C38.9909 7.41489 38.9263 7.36322 38.8488 7.36322C38.7454 7.36322 38.655 7.42781 38.5775 7.55699C38.5 7.66033 38.4612 7.82826 38.4612 8.06079C38.4612 8.83585 38.5517 9.77885 38.7325 10.8898C38.9134 12.0007 39.0942 12.8275 39.2751 13.37ZM32.8033 25.306C33.2166 24.7377 33.5008 24.1822 33.6558 23.6396C33.8108 23.0713 33.9271 22.4383 34.0046 21.7407V21.6632C34.0046 21.5082 33.9788 21.379 33.9271 21.2757C33.9013 21.1465 33.8625 21.0819 33.8108 21.0819C33.6558 21.0819 33.5654 21.2886 33.5396 21.702C33.4621 22.322 33.3329 22.8775 33.152 23.3684C32.997 23.8593 32.6999 24.3501 32.2607 24.841C32.1057 24.996 32.0282 25.1639 32.0282 25.3448C32.0282 25.5256 32.1186 25.6161 32.2995 25.6161C32.4545 25.6161 32.6224 25.5127 32.8033 25.306Z" fill="#26434C"/>
<path d="M5.30191 24.3759C3.88095 22.8774 3.17047 21.3014 3.17047 19.648C3.17047 18.7437 3.39007 17.9041 3.82928 17.129C4.26848 16.3539 4.83687 15.7468 5.53443 15.3076C6.25782 14.8425 6.99414 14.61 7.74337 14.61C8.80263 14.61 9.64229 14.7909 10.2623 15.1526C10.8824 15.5143 11.4895 16.0051 12.0838 16.6252C12.4196 16.9611 12.6651 17.1936 12.8201 17.3228C13.0009 17.4519 13.2076 17.5165 13.4401 17.5165C13.5951 17.5165 13.7243 17.4778 13.8277 17.4003C13.931 17.3228 13.9827 17.2194 13.9827 17.0902C13.9827 16.7544 13.6468 16.2893 12.9751 15.6951C12.0708 14.9717 10.6499 13.9383 8.71221 12.5948L7.85963 12.0135C6.36117 10.9801 5.31483 9.92087 4.72061 8.83577C4.15222 7.72484 3.93262 6.69142 4.0618 5.7355C4.29432 3.97868 5.09522 2.58356 6.46451 1.55013C7.85963 0.516711 9.90064 0 12.5875 0C14.9903 0 16.9279 0.34878 18.4006 1.04634C19.8732 1.7439 20.8679 2.4673 21.3846 3.21653C21.8238 3.83658 22.0434 4.55998 22.0434 5.38672C22.0434 6.08428 21.8754 6.74309 21.5396 7.36314C21.2037 7.95736 20.7903 8.38365 20.2995 8.642C19.6277 8.95203 19.0594 9.10705 18.5943 9.10705C18.181 9.10705 17.7547 9.01662 17.3155 8.83577C16.9021 8.65492 16.3079 8.3449 15.5328 7.90569C13.6985 6.87227 12.6005 6.35555 12.2388 6.35555C12.0579 6.35555 11.9675 6.44598 11.9675 6.62683C11.9675 6.83351 12.1613 7.07895 12.5488 7.36314C12.9363 7.64733 13.6081 8.08654 14.564 8.68076C15.6232 9.32665 16.5662 9.93378 17.393 10.5022C18.2455 11.0705 19.0594 11.7035 19.8344 12.4011C21.4879 13.8737 22.3146 15.9018 22.3146 18.4854C22.3146 19.2346 22.2371 19.9838 22.0821 20.7331C21.6946 22.6449 20.7774 24.2596 19.3306 25.5772C17.8838 26.869 15.8816 27.5149 13.3239 27.5149C11.7996 27.5149 10.3657 27.2953 9.02223 26.8561C7.70462 26.4169 6.46451 25.5902 5.30191 24.3759ZM6.85204 9.06829C7.18791 9.37832 7.52377 9.53333 7.85963 9.53333C8.09215 9.53333 8.20841 9.44291 8.20841 9.26206C8.20841 9.02954 8.00173 8.75826 7.58836 8.44824C6.27074 7.59566 5.61193 6.65266 5.61193 5.61924C5.61193 5.05086 5.8057 4.54706 6.19324 4.10786C6.58077 3.64282 7.1104 3.30695 7.78212 3.10027C8.06632 2.99693 8.28592 2.86775 8.44093 2.71274C8.62178 2.55772 8.71221 2.40271 8.71221 2.24769C8.71221 2.09268 8.59595 2.01518 8.36343 2.01518C8.15674 2.01518 7.92422 2.07976 7.66586 2.20894C6.8908 2.57064 6.27074 3.07443 5.8057 3.72032C5.3665 4.36621 5.14689 5.06378 5.14689 5.81301C5.14689 7.02728 5.71528 8.11237 6.85204 9.06829ZM10.3011 11.5873C10.3528 11.5356 10.3786 11.471 10.3786 11.3935C10.3786 11.1093 10.2107 10.8251 9.87481 10.5409C9.66812 10.3601 9.46144 10.2567 9.25475 10.2309C9.04807 10.1792 8.90597 10.2051 8.82847 10.3084C8.77679 10.3601 8.75096 10.4247 8.75096 10.5022C8.75096 10.7347 8.90597 11.006 9.216 11.316C9.42269 11.4968 9.62937 11.626 9.83605 11.7035C10.0686 11.7552 10.2236 11.7164 10.3011 11.5873ZM17.5092 25.6547C19.1369 24.8797 20.1574 23.9367 20.5707 22.8257C20.9841 21.689 21.152 20.3972 21.0745 18.9504C21.0745 18.8471 21.0487 18.7566 20.997 18.6791C20.9454 18.6016 20.8937 18.5629 20.842 18.5629C20.7903 18.5629 20.7387 18.6145 20.687 18.7179C20.6353 18.8212 20.6224 18.9504 20.6483 19.1054C20.7258 20.3714 20.4932 21.5598 19.9507 22.6707C19.4081 23.7558 18.4006 24.5051 16.9279 24.9184C16.6954 24.9959 16.5791 25.1122 16.5791 25.2672C16.5791 25.3705 16.6437 25.4739 16.7729 25.5772C16.9021 25.6806 17.0442 25.7322 17.1992 25.7322L17.5092 25.6547Z" fill="#26434C"/>
<path d="M84.314 49.6841C84.3915 47.5139 84.624 45.2792 85.0115 42.9798C85.2182 41.533 85.3603 40.3962 85.4378 39.5695C85.4637 39.3886 85.4766 39.1045 85.4766 38.7169C85.4766 37.8385 85.3603 36.7534 85.1278 35.4616C84.9211 34.0665 84.8178 33.0589 84.8178 32.4389C84.8178 31.0438 85.1278 29.9587 85.7479 29.1836C86.3937 28.3827 87.4788 27.9822 89.0031 27.9822C90.6566 27.9822 91.858 28.331 92.6072 29.0286C93.3564 29.7003 93.6665 30.9404 93.5373 32.7489C93.4856 33.524 93.4598 34.0278 93.4598 34.2603C93.4598 35.3712 93.576 36.1075 93.8086 36.4692C94.0411 36.8051 94.3124 36.973 94.6224 36.973C94.9066 36.973 95.1262 36.8051 95.2812 36.4692C95.4362 36.1075 95.5137 35.41 95.5137 34.3765L95.475 33.4465C95.4233 32.8264 95.3975 32.3355 95.3975 31.9738C95.3975 30.5012 95.7592 29.4807 96.4825 28.9123C97.2318 28.3439 98.3556 28.0339 99.8541 27.9822C101.327 27.9306 102.334 28.3052 102.877 29.1061C103.419 29.907 103.704 31.0308 103.729 32.4776C103.729 33.0977 103.626 34.0794 103.419 35.4229C103.213 36.8697 103.109 37.9548 103.109 38.6782C103.109 39.0657 103.122 39.3628 103.148 39.5695C103.277 40.7321 103.471 41.9722 103.729 43.2898C103.962 44.5041 104.143 45.5634 104.272 46.4676C104.401 47.346 104.492 48.3536 104.543 49.4904C104.698 53.314 103.2 55.2259 100.048 55.2259C98.3427 55.2259 97.1284 54.7479 96.405 53.792C95.7075 52.8361 95.3587 51.6218 95.3587 50.1492C95.3587 49.1416 95.4362 47.9661 95.5912 46.6226C95.6946 45.4859 95.7462 44.6979 95.7462 44.2587C95.7462 43.7936 95.6558 43.4707 95.475 43.2898C95.3199 43.109 95.0616 43.0186 94.6999 43.0186C93.899 43.0186 93.576 43.4578 93.7311 44.3362L93.9636 45.5763C94.2219 47.1006 94.3769 48.4053 94.4286 49.4904C94.4803 50.4721 94.2865 51.4022 93.8473 52.2806C93.4339 53.159 92.8139 53.8695 91.9872 54.412C91.1604 54.9546 90.2045 55.2259 89.1194 55.2259C87.3109 55.2259 86.032 54.6962 85.2828 53.637C84.5594 52.5777 84.2365 51.2601 84.314 49.6841ZM85.8254 33.679C85.8254 33.8598 85.8641 34.0148 85.9416 34.144C86.045 34.2474 86.1612 34.299 86.2904 34.299C86.4454 34.299 86.5617 34.2215 86.6392 34.0665C86.7167 33.8857 86.7296 33.6531 86.6779 33.369C86.4971 32.3355 86.4067 31.6251 86.4067 31.2375C86.4067 30.7208 86.5229 30.3591 86.7555 30.1524C86.988 29.9457 87.3755 29.8424 87.9181 29.8424C88.2797 29.8424 88.5769 29.8553 88.8094 29.8812H89.0807C89.3648 29.8812 89.5844 29.8424 89.7395 29.7649C89.9203 29.6615 90.0107 29.5453 90.0107 29.4161C90.0107 29.2869 89.9074 29.1836 89.7007 29.1061C89.5199 29.0027 89.2744 28.964 88.9644 28.9898C87.6984 29.0932 86.8459 29.4032 86.4067 29.9199C85.9933 30.4108 85.7866 31.2763 85.7866 32.5164C85.7866 33.0073 85.7995 33.3948 85.8254 33.679ZM96.5988 33.679C96.5988 33.8598 96.6376 34.0148 96.7151 34.144C96.8184 34.2474 96.9347 34.299 97.0638 34.299C97.2189 34.299 97.3351 34.2215 97.4126 34.0665C97.4901 33.8857 97.5031 33.6531 97.4514 33.369C97.2705 32.3355 97.1801 31.6251 97.1801 31.2375C97.1801 30.7208 97.2964 30.3591 97.5289 30.1524C97.7614 29.9457 98.1489 29.8424 98.6915 29.8424C99.0532 29.8424 99.3503 29.8553 99.5828 29.8812H99.8541C100.138 29.8812 100.358 29.8424 100.513 29.7649C100.694 29.6615 100.784 29.5453 100.784 29.4161C100.784 29.2869 100.681 29.1836 100.474 29.1061C100.293 29.0027 100.048 28.964 99.7378 28.9898C98.4719 29.0932 97.6193 29.4032 97.1801 29.9199C96.7667 30.4108 96.5601 31.2763 96.5601 32.5164C96.5601 33.0073 96.573 33.3948 96.5988 33.679ZM102.102 53.2882C103.109 52.4356 103.613 51.2084 103.613 49.6066C103.613 49.0641 103.549 48.4957 103.419 47.9015C103.316 47.2814 103.213 46.7518 103.109 46.3126C103.058 46.0542 102.967 45.8475 102.838 45.6925C102.709 45.5117 102.593 45.4213 102.489 45.4213C102.36 45.4213 102.296 45.5375 102.296 45.77C102.296 45.9509 102.347 46.1834 102.451 46.4676C102.683 47.2168 102.851 47.824 102.954 48.289C103.058 48.7541 103.109 49.2062 103.109 49.6454C103.109 50.9113 102.541 51.8931 101.404 52.5906C101.068 52.8232 100.9 53.0298 100.9 53.2107C100.9 53.469 101.068 53.5982 101.404 53.5982C101.663 53.5982 101.895 53.4949 102.102 53.2882Z" fill="#26434C"/>
<path d="M73.2559 55.3034C71.2666 55.0192 69.5615 54.2183 68.1405 52.9007C66.7195 51.5831 65.6474 49.9554 64.924 48.0177C64.2264 46.0542 63.8776 43.9874 63.8776 41.8172C63.8776 39.4403 64.3039 37.2055 65.1565 35.1129C66.0349 32.9943 67.3267 31.2892 69.0318 29.9974C70.737 28.6798 72.8038 28.021 75.2324 28.021C77.2992 28.021 78.9656 28.6023 80.2316 29.7649C81.5233 30.9275 82.3759 32.3485 82.7893 34.0278C82.996 34.9062 83.0993 35.7329 83.0993 36.508C83.0993 37.9289 82.828 39.1949 82.2855 40.3058C81.7429 41.3909 80.942 42.1014 79.8828 42.4373C79.1852 42.6439 78.591 42.7473 78.1001 42.7473C76.4208 42.7473 75.2453 41.7397 74.5736 39.7245C74.4444 39.337 74.3798 38.859 74.3798 38.2906C74.3798 37.8514 74.4056 37.4122 74.4573 36.973C74.5348 36.508 74.5865 36.2109 74.6123 36.0817C74.664 35.72 74.7673 35.3066 74.9223 34.8416C74.9482 34.7641 74.9869 34.6349 75.0386 34.4541C75.0903 34.2474 75.1032 34.1053 75.0774 34.0278C75.0774 33.9503 75.0386 33.9115 74.9611 33.9115C74.7802 33.9115 74.5736 34.1311 74.341 34.5703C74.1085 35.0095 73.9018 35.5779 73.721 36.2755C73.566 36.973 73.4885 37.7093 73.4885 38.4844C73.4885 38.9495 73.5272 39.4145 73.6047 39.8795C73.8114 41.1196 74.2764 42.2047 74.9998 43.1348C75.7491 44.0649 76.7308 44.5299 77.9451 44.5299C78.3585 44.5299 78.6685 44.5041 78.8752 44.4524C79.0819 44.4008 79.379 44.3749 79.7665 44.3749C80.8516 44.3749 81.6783 44.7625 82.2467 45.5375C82.8409 46.3126 83.1381 47.2814 83.1381 48.444C83.1381 49.2708 82.983 50.0975 82.673 50.9243C82.363 51.751 81.9238 52.4873 81.3554 53.1332C79.9086 54.6833 77.8805 55.4584 75.2711 55.4584C74.8061 55.4584 74.1344 55.4067 73.2559 55.3034ZM65.3503 38.9495C65.3503 39.1561 65.389 39.3112 65.4665 39.4145C65.544 39.5178 65.6344 39.5695 65.7378 39.5695C65.8928 39.5695 66.0349 39.492 66.1641 39.337C66.2933 39.1561 66.3578 38.9365 66.3578 38.6782C66.3578 34.7512 68.0759 31.9351 71.512 30.2299C71.8737 30.0233 72.0546 29.8424 72.0546 29.6874C72.0546 29.5582 71.9642 29.4936 71.7833 29.4936C71.68 29.4936 71.4733 29.5582 71.1633 29.6874C69.5873 30.4883 68.2438 31.7026 67.1329 33.3302C66.0478 34.932 65.4536 36.7922 65.3503 38.9107V38.9495ZM65.9316 42.2822C66.0607 42.2822 66.177 42.1918 66.2803 42.011C66.3837 41.8043 66.4353 41.5588 66.4353 41.2747C66.4353 41.0163 66.3837 40.7967 66.2803 40.6158C66.177 40.4092 66.0607 40.3058 65.9316 40.3058C65.8024 40.3058 65.6861 40.4092 65.5828 40.6158C65.4794 40.7967 65.4278 41.0163 65.4278 41.2747C65.4278 41.5588 65.4794 41.8043 65.5828 42.011C65.6861 42.1918 65.8024 42.2822 65.9316 42.2822ZM82.1305 49.3741C82.208 49.0641 82.2467 48.7153 82.2467 48.3278C82.2467 47.4752 82.0142 46.7776 81.5492 46.2351C81.11 45.6667 80.3866 45.4213 79.379 45.4988C79.1465 45.5246 78.9656 45.5892 78.8364 45.6925C78.7073 45.77 78.6427 45.8605 78.6427 45.9638C78.6427 46.1705 78.8623 46.2351 79.3015 46.1576C79.4565 46.1317 79.6503 46.1188 79.8828 46.1188C80.9937 46.1188 81.5492 46.6097 81.5492 47.5915C81.5492 48.0048 81.4071 48.5861 81.1229 49.3354C81.097 49.387 81.0841 49.4645 81.0841 49.5679C81.0841 49.6712 81.1229 49.7746 81.2004 49.8779C81.3037 49.9554 81.42 49.9942 81.5492 49.9942C81.6783 49.9942 81.7946 49.9425 81.8979 49.8392C82.0271 49.7358 82.1046 49.5808 82.1305 49.3741Z" fill="#26434C"/>
<path d="M46.0147 30.6565C46.0405 29.8815 46.2472 29.3131 46.6348 28.9514C47.0481 28.5897 47.6424 28.3572 48.4174 28.2538C49.1925 28.1246 50.3034 28.0601 51.7502 28.0601H58.7646C60.0305 28.0601 61.0252 28.2797 61.7486 28.7189C62.4978 29.1322 62.8853 29.7781 62.9112 30.6565C63.0145 33.4468 63.0662 35.5653 63.0662 37.0121C63.0662 37.9422 62.9112 38.7043 62.6012 39.2985C62.2911 39.8669 61.9036 40.164 61.4386 40.1899C60.4568 40.2415 59.8109 40.0349 59.5009 39.5698C59.2167 39.1048 59.0746 38.2651 59.0746 37.0508C59.0746 36.7667 59.1004 36.3662 59.1521 35.8495L59.1909 34.7644C59.1909 34.196 59.0746 33.9118 58.8421 33.9118C58.4287 33.9118 58.222 34.4544 58.222 35.5395C58.222 36.0303 58.3254 37.18 58.5321 38.9885C58.6612 40.1511 58.8808 41.3266 59.1909 42.5151C59.5267 43.7035 59.7205 44.3882 59.7722 44.569C60.108 45.7574 60.3535 46.7392 60.5085 47.5143C60.6893 48.2635 60.7798 48.9481 60.7798 49.5682C60.7798 50.5499 60.5472 51.4929 60.0822 52.3972C59.643 53.3014 58.9971 54.0378 58.1445 54.6061C57.3178 55.1745 56.336 55.4587 55.1993 55.4587C53.1324 55.4587 51.6081 54.9162 50.6264 53.8311C49.6446 52.7201 49.1537 51.4025 49.1537 49.8782C49.1537 48.819 49.3863 47.2947 49.8513 45.3053C50.3938 42.9543 50.7297 40.9649 50.8589 39.3373C51.0139 37.5288 51.0914 36.3533 51.0914 35.8107C51.0914 34.5448 50.9106 33.9118 50.5489 33.9118C50.2647 33.9118 50.1226 34.1702 50.1226 34.6869C50.1226 34.9194 50.1484 35.2553 50.2001 35.6945C50.2776 36.1078 50.3293 36.4308 50.3551 36.6633C50.4068 37.18 50.4326 37.5546 50.4326 37.7872C50.4326 39.3373 49.7867 40.1124 48.4949 40.1124C46.8414 40.1124 46.0147 39.0919 46.0147 37.0508V32.4392V30.6565ZM46.906 33.4855C46.9319 33.6664 46.9835 33.8214 47.061 33.9506C47.1644 34.0539 47.2807 34.1056 47.4098 34.1056C47.539 34.1056 47.6424 34.0281 47.7199 33.8731C47.7974 33.6922 47.8103 33.4597 47.7586 33.1755C47.5778 32.0387 47.4873 31.2766 47.4873 30.8891C47.4873 30.3465 47.5907 29.9719 47.7974 29.7652C48.0299 29.5327 48.4303 29.4164 48.9987 29.4164C49.1537 29.4164 49.4896 29.4423 50.0063 29.4939C50.1096 29.5198 50.2517 29.5327 50.4326 29.5327C50.6651 29.5327 50.846 29.5069 50.9751 29.4552C51.1302 29.3777 51.2077 29.3002 51.2077 29.2227C51.2077 29.1193 51.0914 29.0289 50.8589 28.9514C50.6264 28.848 50.3163 28.7964 49.9288 28.7964C48.792 28.7964 47.9911 29.016 47.5261 29.4552C47.0611 29.8944 46.8285 30.734 46.8285 31.9742C46.8285 32.2583 46.8544 32.7621 46.906 33.4855ZM59.4234 48.6769C59.5009 47.8501 59.4105 46.9588 59.1521 46.0029C58.8938 45.0211 58.5579 43.9102 58.1445 42.6701C57.9895 42.2567 57.8345 42.05 57.6795 42.05C57.602 42.05 57.5632 42.1405 57.5632 42.3213C57.5632 42.4247 57.602 42.5797 57.6795 42.7863C58.3512 44.6207 58.6871 46.1837 58.6871 47.4755C58.6871 47.863 58.6742 48.1472 58.6483 48.3281L58.6096 48.5994C58.6096 48.806 58.6483 48.974 58.7258 49.1032C58.8033 49.2065 58.9067 49.2582 59.0358 49.2582C59.1134 49.2582 59.1909 49.2065 59.2684 49.1032C59.3459 48.9998 59.3975 48.8577 59.4234 48.6769Z" fill="#26434C"/>
<path d="M25.3135 50.2656C25.3135 49.1547 25.3781 48.16 25.5072 47.2816C25.6623 46.4032 25.8819 45.4214 26.1661 44.3363C26.4244 43.3029 26.6053 42.4503 26.7086 41.7786C26.8119 41.081 26.8378 40.3447 26.7861 39.5697C26.6569 37.8903 26.5923 36.4694 26.5923 35.3068C26.5923 33.1883 26.8249 31.6769 27.2899 30.7726C27.8841 29.61 28.84 28.8091 30.1577 28.3699C31.5011 27.9049 33.2192 27.6724 35.3119 27.6724C37.4045 27.6724 39.1743 27.8661 40.6211 28.2537C42.0679 28.6412 43.0625 29.4292 43.6051 30.6176C44.1735 31.8836 44.4577 33.4725 44.4577 35.3843C44.4577 36.056 44.4189 36.7665 44.3414 37.5157C44.3414 37.7999 44.3156 38.2262 44.2639 38.7946C44.2381 39.3371 44.2251 39.8409 44.2251 40.306C44.2251 40.926 44.2768 41.5202 44.3801 42.0886C44.4835 42.657 44.6385 43.4192 44.8452 44.3751C45.1035 45.6152 45.2973 46.6357 45.4265 47.4366C45.5557 48.2117 45.6203 49.1159 45.6203 50.1493C45.6203 51.6478 45.3102 52.8491 44.6902 53.7534C44.0701 54.6576 42.9204 55.2002 41.2411 55.381C41.0344 55.4069 40.7373 55.4198 40.3498 55.4198C38.748 55.4198 37.5725 54.9418 36.8232 53.9859C36.074 53.0042 35.6994 51.7899 35.6994 50.3431C35.6994 49.9039 35.7123 49.5809 35.7381 49.3743C36.0223 46.7649 36.1644 45.1631 36.1644 44.5688C36.1644 43.6646 35.9836 43.2125 35.6219 43.2125C35.3119 43.2125 35.0922 43.3933 34.9631 43.755C34.8597 44.1167 34.8081 44.6722 34.8081 45.4214C34.8081 45.7573 34.8339 46.3903 34.8856 47.3203C34.9631 49.0255 35.0018 49.9685 35.0018 50.1493C35.0018 53.6371 33.3225 55.381 29.9639 55.381C28.2071 55.381 26.9928 54.9031 26.3211 53.9472C25.6493 52.9912 25.3135 51.7641 25.3135 50.2656ZM27.7937 34.1442C27.7937 34.325 27.8324 34.4671 27.91 34.5705C28.0133 34.6738 28.1425 34.7255 28.2975 34.7255C28.4783 34.7255 28.6204 34.648 28.7238 34.493C28.853 34.3121 28.9046 34.0796 28.8788 33.7954C28.8271 33.072 28.8013 32.6199 28.8013 32.439C28.8013 31.5606 28.9563 30.9793 29.2663 30.6951C29.5764 30.3851 30.1964 30.2043 31.1265 30.1526C31.359 30.1267 31.5528 30.0492 31.7078 29.9201C31.8886 29.7909 31.9791 29.6488 31.9791 29.4938C31.9791 29.3646 31.9145 29.2613 31.7853 29.1837C31.6561 29.1062 31.4623 29.0804 31.204 29.1062C30.2222 29.2096 29.4084 29.6746 28.7625 30.5014C28.1166 31.3281 27.7937 32.5424 27.7937 34.1442ZM35.3894 37.6707C35.6736 37.6707 35.8932 37.5028 36.0482 37.1669C36.229 36.8311 36.3194 36.4306 36.3194 35.9656C36.3194 35.423 36.229 34.9451 36.0482 34.5317C35.8673 34.1183 35.6348 33.9117 35.3506 33.9117C35.0406 33.9117 34.7951 34.0925 34.6143 34.4542C34.4593 34.7901 34.3818 35.2164 34.3818 35.7331C34.3818 36.2498 34.4722 36.7019 34.653 37.0894C34.8339 37.477 35.0793 37.6707 35.3894 37.6707ZM43.1013 53.4046C44.0572 52.6554 44.5352 51.5574 44.5352 50.1106C44.5352 49.2838 44.3672 48.3796 44.0314 47.3978C43.9022 47.0103 43.7343 46.8165 43.5276 46.8165C43.4501 46.8165 43.3726 46.8682 43.2951 46.9715C43.2434 47.0749 43.2175 47.2041 43.2175 47.3591C43.2175 47.4108 43.2434 47.5399 43.2951 47.7466C43.6567 48.8317 43.8376 49.7101 43.8376 50.3818C43.8376 51.4669 43.4501 52.242 42.675 52.7071C42.3133 52.9137 42.1324 53.1204 42.1324 53.3271C42.1324 53.5338 42.2616 53.6371 42.52 53.6371C42.7267 53.6371 42.9204 53.5596 43.1013 53.4046Z" fill="#26434C"/>
<path d="M0.56275 49.6843C0.614421 48.3667 0.691928 47.2299 0.79527 46.274C0.924448 45.2923 1.09238 44.1167 1.29906 42.7475C1.50575 41.404 1.64784 40.3448 1.72535 39.5697C1.75119 39.3888 1.76411 39.1176 1.76411 38.7559C1.76411 38.1358 1.71243 37.477 1.60909 36.7794C1.50575 36.056 1.44116 35.6168 1.41532 35.4618C1.1828 34.1959 1.06654 33.2012 1.06654 32.4778C1.06654 29.4809 2.44875 27.9824 5.21316 27.9824C6.22075 27.9824 7.0604 28.1116 7.73213 28.37C8.42969 28.6283 9.04974 29.145 9.59229 29.9201C10.1348 30.6952 10.587 31.8448 10.9487 33.3691C11.1295 34.1442 11.3104 34.7384 11.4912 35.1518C11.6721 35.5393 11.9046 35.7202 12.1888 35.6943C12.3955 35.6685 12.5892 35.436 12.7701 34.9968C12.9509 34.5317 13.1834 33.8729 13.4676 33.0204C14.0618 31.186 14.824 29.8943 15.7541 29.145C16.6842 28.37 17.8597 27.9824 19.2806 27.9824C20.6499 27.9824 21.5929 28.3829 22.1096 29.1838C22.6263 29.9588 22.8976 31.0569 22.9235 32.4778C22.9235 33.0204 22.9105 33.5112 22.8847 33.9504C22.8589 34.3896 22.833 34.7772 22.8072 35.113C22.7039 36.4048 22.6522 37.3866 22.6522 38.0583C22.6522 38.3942 22.678 38.898 22.7297 39.5697C22.8072 40.2156 22.8718 40.7969 22.9235 41.3136C23.001 41.8303 23.0656 42.2953 23.1172 42.7087C23.4789 45.3439 23.6985 47.6046 23.776 49.4906C23.8535 51.0924 23.5048 52.4487 22.7297 53.5597C21.9805 54.6448 20.7791 55.2002 19.1256 55.2261C17.6013 55.2519 16.4 55.1356 15.5216 54.8773C14.669 54.6189 14.036 54.1539 13.6226 53.4821C13.2351 52.7846 13.093 51.7899 13.1964 50.4981C13.4289 47.9921 13.9456 45.3956 14.7465 42.7087C14.9015 42.2178 15.0048 41.7915 15.0565 41.4298C15.134 41.0682 15.134 40.8615 15.0565 40.8098C15.0307 40.784 14.9919 40.7581 14.9403 40.7323C14.9144 40.7065 14.8757 40.6935 14.824 40.6935C14.669 40.6935 14.5398 41.0165 14.4365 41.6624C13.9973 44.0909 13.4547 45.3052 12.8088 45.3052C12.3179 45.3052 11.8917 45.0468 11.53 44.5301C11.1683 43.9876 10.7936 43.1608 10.4061 42.0499C10.2769 41.6882 10.1348 41.4298 9.97983 41.2748C9.82481 41.1198 9.6698 41.094 9.51478 41.1973C9.48895 41.2232 9.57937 41.5332 9.78606 42.1274C10.2253 43.2383 10.6128 44.4009 10.9487 45.6152C11.3104 46.8295 11.5429 48.1729 11.6462 49.6456C11.7754 51.3766 11.4008 52.7458 10.5224 53.7534C9.6698 54.761 8.28759 55.2648 6.37576 55.2648C2.34541 55.2648 0.407736 53.4046 0.56275 49.6843ZM2.2679 33.4854C2.2679 33.6663 2.30665 33.8213 2.38416 33.9504C2.4875 34.0538 2.60376 34.1055 2.73294 34.1055C2.88795 34.1055 3.00421 34.028 3.08172 33.8729C3.15923 33.6921 3.17215 33.4596 3.12047 33.1754C2.93962 32.142 2.8492 31.4315 2.8492 31.0439C2.8492 30.5272 2.96546 30.1655 3.19798 29.9588C3.4305 29.7522 3.81803 29.6488 4.36058 29.6488C4.72228 29.6488 5.01939 29.6617 5.25191 29.6876H5.52318C5.80738 29.6876 6.02698 29.6488 6.18199 29.5713C6.36284 29.468 6.45327 29.3517 6.45327 29.2225C6.45327 29.0933 6.34992 28.99 6.14324 28.9125C5.96239 28.8092 5.71695 28.7704 5.40692 28.7962C4.14098 28.8996 3.28841 29.2096 2.8492 29.7263C2.43583 30.2172 2.22915 31.0827 2.22915 32.3228C2.22915 32.8137 2.24206 33.2012 2.2679 33.4854ZM14.4752 33.4854C14.4752 33.6146 14.5011 33.7179 14.5527 33.7954C14.6302 33.8729 14.7207 33.9117 14.824 33.9117C14.9532 33.9117 15.0824 33.8471 15.2115 33.7179C15.3407 33.5887 15.4182 33.395 15.4441 33.1366C15.6507 31.7673 16.0512 30.7985 16.6454 30.2301C17.2396 29.6359 18.0793 29.3646 19.1644 29.4163H19.2419C19.4486 29.4163 19.6036 29.3905 19.7069 29.3388C19.8361 29.2613 19.9007 29.1838 19.9007 29.1063C19.9007 29.0288 19.8361 28.9642 19.7069 28.9125C19.6036 28.8608 19.4227 28.835 19.1644 28.835C17.8984 28.835 16.8908 29.2096 16.1416 29.9588C15.3924 30.7081 14.8498 31.819 14.514 33.2916L14.4752 33.4854ZM21.6058 53.0559C22.4843 51.9708 22.9235 50.4723 22.9235 48.5605C22.9235 47.8371 22.8589 47.1266 22.7297 46.429C22.6263 45.7056 22.4972 45.1114 22.3422 44.6464C22.2647 44.388 22.1613 44.2588 22.0321 44.2588C21.9546 44.2588 21.9159 44.3364 21.9159 44.4914C21.9159 44.6205 21.9288 44.7239 21.9546 44.8014C22.0321 45.0081 22.0967 45.3956 22.1484 45.964C22.2259 46.5065 22.2647 47.0878 22.2647 47.7079C22.2647 49.8006 21.8254 51.4024 20.947 52.5133C20.8437 52.6167 20.792 52.7458 20.792 52.9009C20.792 53.03 20.8179 53.1334 20.8695 53.2109C20.947 53.2884 21.0375 53.3271 21.1408 53.3271C21.2958 53.3271 21.4508 53.2367 21.6058 53.0559Z" fill="#26434C"/>
</svg>
