<svg width="22" height="39" viewBox="0 0 22 39" fill="none" xmlns="http://www.w3.org/2000/svg">
<path d="M5.6718 5.75927H16.5105L19.2202 20.6625L18.5428 35.5657H4.31696L2.2847 20.6625L5.6718 5.75927Z" fill="#B2E8EB"/>
<path fill-rule="evenodd" clip-rule="evenodd" d="M11.2343 38.7254L14.485 38.7267C15.0693 38.7305 15.6448 38.5843 16.1564 38.302C16.6679 38.0196 17.0984 37.6107 17.4066 37.1143C19.7281 33.3277 21.7154 27.6182 21.7154 21.2281C21.7154 15.5235 19.7639 10.4092 17.6541 6.74264C16.5961 4.90505 15.475 3.39043 14.49 2.30891C13.6621 1.40187 12.5435 0.226303 11.2157 0.22754C9.88673 0.22754 8.76932 1.40187 7.94024 2.31014C6.95524 3.38919 5.83536 4.90505 4.77735 6.74265C2.66628 10.4104 0.716082 15.5235 0.714844 21.2268C0.716081 27.6182 2.7034 33.3277 5.0236 37.1131C5.33176 37.6099 5.7624 38.0192 6.2742 38.3017C6.786 38.5843 7.36182 38.7306 7.94642 38.7267H11.1959C11.2091 38.727 11.2223 38.727 11.2355 38.7267L11.2343 38.7254ZM4.21555 21.2281C4.21555 16.3006 5.91084 11.7864 7.81031 8.48867C8.36715 7.52099 8.93266 6.67335 9.466 5.96182L9.46476 35.226H7.97241C5.98014 31.9517 4.21431 26.8968 4.21431 21.2268L4.21555 21.2281ZM12.9667 35.226L12.963 5.96182C13.5647 6.77038 14.1176 7.61417 14.6187 8.48867C16.5169 11.7877 18.2122 16.2994 18.2134 21.2281C18.2134 26.8955 16.4476 31.9529 14.4553 35.2272H12.963L12.9667 35.226Z" fill="white"/>
</svg>
